# xmcd CD database file
#
# Track frame offsets:
#	150
#	12682
#	21182
#	32542
#	45712
#	53520
#	63137
#	83867
#	94012
#	126470
#	138305
#	146762
#	154967
#	164975
#	178492
#	198227
#	216922
#	239967
#	258417
#	273385
#	287690
#	302745
#	312887
#	337352
#
# Disc length: 4629 seconds
#
# Revision: 2
# Processed by: cddbd v1.5.1PL0 Copyright (c) Steve Scherf et al.
# Submitted via: CDex 1.51
#
DISCID=7b121318
DTITLE=Valery Afanassiev - Bach_Das Wohltemperierte Klavier II CD1
DYEAR=2004
DGENRE=Classical
TTITLE0=Praeludium und Fuge in C major, BWV870 - Praeludium 1
TTITLE1=Praeludium und Fuge in C major, BWV870 - Fuge 1
TTITLE2=Praeludium und Fuge in C minor, BWV871 - Praeludium 2
TTITLE3=Praeludium und Fuge in C minor, BWV871 - Fuge 2
TTITLE4=Praeludium und Fuge in C-sharp major, BWV872 - Praeludium 3
TTITLE5=Praeludium und Fuge in C-sharp major, BWV872 - Fuge 3
TTITLE6=Praeludium und Fuge in C-sharp minor, BWV873 - Praeludium 4
TTITLE7=Praeludium und Fuge in C-sharp minor, BWV873 - Fuge 4
TTITLE8=Praeludium und Fuge in D major, BWV874 - Praeludium 5
TTITLE9=Praeludium und Fuge in D major, BWV874 - Fuge 5
TTITLE10=Praeludium und Fuge in D minor, BWV875 - Praeludium 6
TTITLE11=Praeludium und Fuge in D minor, BWV875 - Fuge 6
TTITLE12=Praeludium und Fuge in E-flat major, BWV876 - Praeludium 7
TTITLE13=Praeludium und Fuge in E-flat major, BWV876 - Fuge 7
TTITLE14=Praeludium und Fuge in D-sharp minor, BWV877 - Praeludium 8
TTITLE15=Praeludium und Fuge in D-sharp minor, BWV877 - Fuge 8
TTITLE16=Praeludium und Fuge in E major, BWV878 - Praeludium 9
TTITLE17=Praeludium und Fuge in E major, BWV878 - Fuge 9
TTITLE18=Praeludium und Fuge in D minor, BWV879 - Praeludium 10
TTITLE19=Praeludium und Fuge in D minor, BWV879 - Fuge 10
TTITLE20=Praeludium und Fuge in F major, BWV880 - Praeludium 11
TTITLE21=Praeludium und Fuge in F major, BWV880 - Fuge 11
TTITLE22=Praeludium und Fuge in F minor, BWV881 - Praeludium 12
TTITLE23=Praeludium und Fuge in F minor, BWV881 - Fuge 12
EXTD=YEAR: 2004
EXTT0=
EXTT1=
EXTT2=
EXTT3=
EXTT4=
EXTT5=
EXTT6=
EXTT7=
EXTT8=
EXTT9=
EXTT10=
EXTT11=
EXTT12=
EXTT13=
EXTT14=
EXTT15=
EXTT16=
EXTT17=
EXTT18=
EXTT19=
EXTT20=
EXTT21=
EXTT22=
EXTT23=
PLAYORDER=
